<!-- tox-icon-text-color__color id is required by tinyMCE to show color of selected text -->
<svg xmlns="http://www.w3.org/2000/svg" width="18" height="18" viewBox="0 0 18 18">
  <path d="M1,11H1a1.007,1.007,0,0,1-.41-.09.994.994,0,0,1-.5-1.32L4.07.629A.977.977,0,0,1,4.59.088,1.011,1.011,0,0,1,5.11.005a1,1,0,0,1,.8.583l.02.041,3.98,8.96a.992.992,0,0,1-.5,1.32A1.015,1.015,0,0,1,9,11a1,1,0,0,1-.91-.589L7.46,9H2.54l-.63,1.41A.992.992,0,0,1,1,11ZM5,3.459H5L3.43,7H6.57L5,3.459Z" transform="translate(0 0)" fill="#494c4e"/>
  <path id="tox-icon-text-color__color" d="M11.783,1.629,6.514,8.5a2.371,2.371,0,0,1,.079.691,2.188,2.188,0,0,1-.02.23,2.616,2.616,0,0,1-.108.44,3.319,3.319,0,0,1-2.644,1.922A7.1,7.1,0,0,1,2.228,12c-.688.01-1.789-.06-2.143-.791-.521-1.061,1.494-.16,1.868-2.262a2.332,2.332,0,0,1,1.16-1.9,1.47,1.47,0,0,1,.128-.08,2.282,2.282,0,0,1,.9-.23L10.308.308A.97.97,0,0,1,11.666.25a1.014,1.014,0,0,1,.116,1.379Z" transform="translate(6 6)" fill="#494c4e"/>
</svg>
